{
  "accessors": [
    {
      "bufferView": 2,
      "componentType": 5126,
      "count": 6280,
      "max": [
        5.372958183288574,
        6.745966911315918,
        13.108787536621094
      ],
      "min": [
        -3.82721209526062,
        -5.074779033660889,
        4.637513160705566
      ],
      "type": "VEC3"
    },
    {
      "bufferView": 2,
      "byteOffset": 75360,
      "componentType": 5126,
      "count": 6280,
      "max": [
        0.9913328886032104,
        0.38708218932151794,
        0.997048020362854
      ],
      "min": [
        -0.8971067667007446,
        -0.9994123578071594,
        -0.269024133682251
      ],
      "type": "VEC3"
    },
    {
      "bufferView": 1,
      "componentType": 5126,
      "count": 6280,
      "max": [
        0.287896990776062,
        0.9880769848823547
      ],
      "min": [
        0.015745000913739204,
        0.7159259915351868
      ],
      "type": "VEC2"
    },
    {
      "bufferView": 0,
      "componentType": 5125,
      "count": 9420,
      "type": "SCALAR"
    },
    {
      "bufferView": 2,
      "byteOffset": 150720,
      "componentType": 5126,
      "count": 486,
      "max": [
        3.434312105178833,
        3.197942018508911,
        10.131939888000488
      ],
      "min": [
        -1.6029579639434814,
        -3.5425329208374023,
        -0.027233999222517014
      ],
      "type": "VEC3"
    },
    {
      "bufferView": 2,
      "byteOffset": 156552,
      "componentType": 5126,
      "count": 486,
      "max": [
        0.9977307319641113,
        0.9981729984283447,
        0.9987635016441345
      ],
      "min": [
        -0.9998742341995239,
        -0.9932547807693481,
        -0.9978126287460327
      ],
      "type": "VEC3"
    },
    {
      "bufferView": 1,
      "byteOffset": 50240,
      "componentType": 5126,
      "count": 486,
      "max": [
        0.9980630278587341,
        0.9926469922065735
      ],
      "min": [
        0.009534000419080257,
        0.007247000001370907
      ],
      "type": "VEC2"
    },
    {
      "bufferView": 0,
      "byteOffset": 37680,
      "componentType": 5125,
      "count": 2220,
      "type": "SCALAR"
    }
  ],
  "asset": {
    "extras": {
      "author": "ZoeChuiYan (https://sketchfab.com/zoelofutureworks)",
      "license": "CC-BY-4.0 (http://creativecommons.org/licenses/by/4.0/)",
      "source": "https://sketchfab.com/3d-models/organics-small-tree-81f88945fc274c0da9fea9d777e8beb6",
      "title": "Organics: Small Tree"
    },
    "generator": "Sketchfab-12.67.0",
    "version": "2.0"
  },
  "bufferViews": [
    {
      "buffer": 0,
      "byteLength": 46560,
      "name": "floatBufferViews",
      "target": 34963
    },
    {
      "buffer": 0,
      "byteLength": 54128,
      "byteOffset": 46560,
      "byteStride": 8,
      "name": "floatBufferViews",
      "target": 34962
    },
    {
      "buffer": 0,
      "byteLength": 162384,
      "byteOffset": 100688,
      "byteStride": 12,
      "name": "floatBufferViews",
      "target": 34962
    }
  ],
  "buffers": [
    {
      "byteLength": 263072,
      "uri": "scene.bin"
    }
  ],
  "images": [
    {
      "uri": "textures/lambert2SG_baseColor.png"
    },
    {
      "uri": "textures/lambert3SG_baseColor.jpeg"
    }
  ],
  "materials": [
    {
      "alphaMode": "BLEND",
      "doubleSided": true,
      "name": "lambert2SG",
      "pbrMetallicRoughness": {
        "baseColorTexture": {
          "index": 0
        },
        "metallicFactor": 0.0,
        "roughnessFactor": 0.6
      }
    },
    {
      "doubleSided": true,
      "name": "lambert3SG",
      "pbrMetallicRoughness": {
        "baseColorTexture": {
          "index": 1
        },
        "metallicFactor": 0.0,
        "roughnessFactor": 0.6
      }
    }
  ],
  "meshes": [
    {
      "name": "Object_0",
      "primitives": [
        {
          "attributes": {
            "NORMAL": 1,
            "POSITION": 0,
            "TEXCOORD_0": 2
          },
          "indices": 3,
          "material": 0,
          "mode": 4
        }
      ]
    },
    {
      "name": "Object_1",
      "primitives": [
        {
          "attributes": {
            "NORMAL": 5,
            "POSITION": 4,
            "TEXCOORD_0": 6
          },
          "indices": 7,
          "material": 1,
          "mode": 4
        }
      ]
    }
  ],
  "nodes": [
    {
      "children": [
        1
      ],
      "matrix": [
        1.0,
        0.0,
        0.0,
        0.0,
        0.0,
        2.220446049250313e-16,
        -1.0,
        0.0,
        0.0,
        1.0,
        2.220446049250313e-16,
        0.0,
        0.0,
        0.0,
        0.0,
        1.0
      ],
      "name": "Sketchfab_model"
    },
    {
      "children": [
        2,
        3
      ],
      "name": "Small-Tree.obj.cleaner.materialmerger.gles"
    },
    {
      "mesh": 0,
      "name": "Object_2"
    },
    {
      "mesh": 1,
      "name": "Object_3"
    }
  ],
  "samplers": [
    {
      "magFilter": 9729,
      "minFilter": 9987,
      "wrapS": 10497,
      "wrapT": 10497
    }
  ],
  "scene": 0,
  "scenes": [
    {
      "name": "Sketchfab_Scene",
      "nodes": [
        0
      ]
    }
  ],
  "textures": [
    {
      "sampler": 0,
      "source": 0
    },
    {
      "sampler": 0,
      "source": 1
    }
  ]
}
